<svg width="40" height="41" viewBox="0 0 40 41" fill="none" xmlns="http://www.w3.org/2000/svg">
<path d="M25.8332 13.0982C25.8332 16.3199 23.2215 18.9316 19.9998 18.9316C16.7782 18.9316 14.1665 16.3199 14.1665 13.0982C14.1665 9.87656 16.7782 7.26489 19.9998 7.26489C23.2215 7.26489 25.8332 9.87656 25.8332 13.0982Z" fill="#6FDA44"/>
<path opacity="0.4" d="M32.4998 13.0981C32.4998 15.3992 30.6343 17.2647 28.3332 17.2647C26.032 17.2647 24.1665 15.3992 24.1665 13.0981C24.1665 10.7969 26.032 8.9314 28.3332 8.9314C30.6343 8.9314 32.4998 10.7969 32.4998 13.0981Z" fill="#6FDA44"/>
<path opacity="0.4" d="M7.5 13.0981C7.5 15.3992 9.36548 17.2647 11.6667 17.2647C13.9678 17.2647 15.8333 15.3992 15.8333 13.0981C15.8333 10.7969 13.9678 8.9314 11.6667 8.9314C9.36548 8.9314 7.5 10.7969 7.5 13.0981Z" fill="#6FDA44"/>
<path d="M30 28.0982C30 31.3199 25.5228 33.9316 20 33.9316C14.4771 33.9316 10 31.3199 10 28.0982C10 24.8766 14.4771 22.2649 20 22.2649C25.5228 22.2649 30 24.8766 30 28.0982Z" fill="#6FDA44"/>
<path opacity="0.4" d="M36.6668 28.0981C36.6668 30.3992 33.682 32.2647 30.0002 32.2647C26.3183 32.2647 23.3335 30.3992 23.3335 28.0981C23.3335 25.7969 26.3183 23.9314 30.0002 23.9314C33.682 23.9314 36.6668 25.7969 36.6668 28.0981Z" fill="#6FDA44"/>
<path opacity="0.4" d="M3.3335 28.0981C3.3335 30.3992 6.31826 32.2647 10.0002 32.2647C13.6821 32.2647 16.6668 30.3992 16.6668 28.0981C16.6668 25.7969 13.6821 23.9314 10.0002 23.9314C6.31826 23.9314 3.3335 25.7969 3.3335 28.0981Z" fill="#6FDA44"/>
</svg>
