<svg width="34" height="41" viewBox="0 0 34 41" fill="none" xmlns="http://www.w3.org/2000/svg">
<path d="M15.7563 0.598145C15.7563 1.94903 15.7563 5.37175 15.7563 6.72614C16.63 6.72614 17.3681 6.72614 18.2417 6.72614C18.2417 5.37183 18.2417 1.94911 18.2417 0.598145C17.3681 0.598145 16.6283 0.598145 15.7563 0.598145ZM4.12002 6.44292C5.0778 7.4007 7.50153 9.82443 8.45763 10.7789C9.07554 10.1626 9.59915 9.63734 10.2188 9.02461C9.26103 8.06508 6.83731 5.64135 5.87945 4.6835C5.26321 5.30141 4.73793 5.82669 4.12002 6.44292ZM23.7827 9.02278C24.3989 9.63559 24.9242 10.1608 25.5421 10.777C26.4999 9.8175 28.9202 7.3972 29.8781 6.44109C29.2618 5.82661 28.7349 5.30475 28.1186 4.68342C27.1625 5.64128 24.7405 8.065 23.7827 9.02278ZM27.8371 16.3163C27.8371 17.1935 27.8371 17.9316 27.8371 18.807C29.1897 18.807 32.6159 18.807 33.9685 18.807C33.9685 17.9316 33.9685 17.1934 33.9685 16.3163C32.6159 16.3163 29.1897 16.3163 27.8371 16.3163ZM0.0330006 16.3163C0.0330006 17.1935 0.03125 17.9316 0.03125 18.8035C1.38388 18.8053 4.81178 18.8053 6.16433 18.8087C6.16433 17.9333 6.16433 17.1952 6.16433 16.3181C4.81178 16.3163 1.38388 16.3163 0.0330006 16.3163Z" fill="#6FDA44"/>
<path d="M22.4728 26.4402H11.5317C9.57831 26.4402 7.9751 28.2374 7.9751 30.4345V40.598H26.0311V30.4345C26.0295 28.2374 24.4297 26.4402 22.4728 26.4402Z" fill="#6FDA44"/>
<path d="M16.9958 24.6775C20.4219 24.6775 23.1839 21.9139 23.1839 18.5015C23.1839 15.0856 20.422 12.3203 16.9958 12.3203C13.5885 12.3203 10.8267 15.0822 10.8267 18.5015C10.8283 21.9122 13.5868 24.6775 16.9958 24.6775Z" fill="#6FDA44"/>
</svg>
