<svg xmlns="http://www.w3.org/2000/svg" width="321" height="209" viewBox="0 0 321 209"><g transform="translate(-703 -392)"><rect width="321" height="209" transform="translate(703 392)" fill="#6ea556"/><g transform="translate(-5.994 -1.848)"><g transform="translate(760.994 446.848)"><g transform="translate(190.738 1.098)"><path d="M7.421,11.589c-.03-5.091-2.006-18.8-2.507-23.4s-1-8.774-.882-9.751c.119-.943,1.57,1.311,2.338,1.493.4-.08.22-1.5-.5-2.719-.488-.826-2.153-3.913-3.162-5.722-.475-.856-.581-1.353-.81-1.458S-.169-26.37.032-25.959a3.859,3.859,0,0,1,.923,2.444c.079,1.331.767,10.832,1.644,18.034C3.26-.047,4.709,11.658,4.76,18.936A21.523,21.523,0,0,1,4.2,24.519C3.385,26,2.117,27.343-2.6,30.105c-5.307,3.106-12.386,5.69-15.429,7.42-1.892,1.079-1.265,1.223.382.751S-7.51,36.291-3.383,34.546c3.875-1.641,6.39-4.388,8.3-8.393C7.274,21.2,7.454,17,7.421,11.589" transform="translate(19.194 29.974)" fill="#fff"/></g><g transform="translate(200.389 1.171)"><path d="M.15.786A20.438,20.438,0,0,1,4.87.641C4.269,1.5.2,3.4.18,3.749c.111.235,2.813-.434,3.665-.806A6.848,6.848,0,0,0,5.186,1.658C6.16.538,7.315-1.54,7.024-1.8c-.472-.421-5.1-.159-5.711-.072C.9-1.814-.134.045-.324.522S-.261.945.15.786" transform="translate(0.387 2.033)" fill="#fff"/></g><g transform="translate(202.245 19.739)"><path d="M1.566,4.022a14.286,14.286,0,0,0-.081-8.368A10.882,10.882,0,0,0-3.735-10.4l-.316,3.035A10.9,10.9,0,0,1,.135-3.023,10.614,10.614,0,0,1,.81,4.85c-.142.772.41.346.757-.828" transform="translate(4.051 10.404)" fill="#fff"/></g><g transform="translate(176.504 36.395)"><path d="M1.411,3.621a12.877,12.877,0,0,0-.071-7.535,9.78,9.78,0,0,0-4.7-5.453l-.286,2.731A9.826,9.826,0,0,1,.121-2.723a9.565,9.565,0,0,1,.61,7.091c-.127.692.369.311.68-.746" transform="translate(3.649 9.366)" fill="#fff"/></g><g transform="translate(86.281 1.054)"><path d="M1.108,1.954a10.086,10.086,0,0,1,.643,7.478c-.135.733.386.33.718-.785A13.593,13.593,0,0,0,2.39.7a10.322,10.322,0,0,0-4.96-5.753l-.3,2.882A10.35,10.35,0,0,1,1.108,1.954" transform="translate(2.867 5.055)" fill="#fff"/></g><g transform="translate(24.777 1.51)"><path d="M1.071,2.1A9.162,9.162,0,0,1,.6,9.7c-.27.72.388.379.939-.7A12.408,12.408,0,0,0,2.728,1a10.311,10.311,0,0,0-4.7-6.422l-.8,2.861A10.614,10.614,0,0,1,1.071,2.1" transform="translate(2.771 5.424)" fill="#fff"/></g><g transform="translate(0 0.581)"><path d="M12.73,14.919a18.166,18.166,0,0,0,2.033-5.8,27.969,27.969,0,0,0,.3-7.041C18.333.75,22.231-1.463,23.54-1.625c-.9,3.075,1.242,6.394,5.561,5.961.331,3.477.614,6.532.786,8.343.352,3.714.3,8.393.288,9.207s.577.663,1.184-1.157c.81-2.437,1.06-8.8.766-13.007-.07-1.052-.189-2.472-.333-4.09,2.8-1.3,3.265-3.8,4.312-4.861.945,3.309,6.144,3.758,7.749,3.049,1.99-.879,2.642-2.461,3.154-6.132S46.025-9.46,45.49-9.86c-.053.444-1.355,4.757-1.355,4.757s1.234,1.3,1.3,1.945c-1.005.91-3.126.966-4.907.387S38.2-4.418,38.3-5.133s.774-1.371.8-2.246-.4-.621-1.113.153a16.876,16.876,0,0,0-2.16,3.137A6.782,6.782,0,0,1,31.4-.592c-.381-4-.816-8.25-1.107-10.922-.152-1.41-1.672-13.6-1.781-14.962-.094-1.188-.27-2.588-.241-3.246.029-.524.357-.316.865.232s1.4,1.5,1.553,1.426c.519-.254-.012-1.838-.691-3.257s-2.99-7.034-3.475-7.266c-.25-.117-1.811,3.337-1.9,4.017a4.754,4.754,0,0,1,.9,3c.008.531.349,5.536.823,10.269.414,4.18.963,8.145,1.016,8.606.377,3.19.835,7.686,1.27,12.107-2.507-.477-3.174-2.131-3.118-3.074.064-1.064.544-2.265.314-2.537-.483-.29-3.356,1.316-7.364,3.042-1.127.484-2.4,1-3.737,1.5-.349-3.013-.81-5.877-.995-8.068L13.7-9.972a8.236,8.236,0,0,0,5.775-2.768c1.226-1.584,2.084-4.844,2.167-7.341s-1.934-7.071-2.414-8.524a15.771,15.771,0,0,1-.777-2.965c-.044-.5,1.09.582,1.8.8.483.1.316-.949-.274-1.667S16.226-37.969,16-37.632a41.9,41.9,0,0,0-1.49,4.279,3,3,0,0,1,1.126,2.112A36.255,36.255,0,0,0,17.154-24.4c.777,2.131,2.43,6.219,2.535,7.343A11.9,11.9,0,0,1,13.158-14.9c-.455-3.728-1.032-8.058-1.34-11.125a26.668,26.668,0,0,1-.108-3.111c.015-.524.392-.451.91.087s1.32,1.321,1.484,1.265c.357-.119.048-1.306-.66-2.717s-3.52-7.376-4.014-7.6c-.25-.114-1.51,3.236-1.589,3.92A4.774,4.774,0,0,1,8.8-31.2c.05,1.516.789,8.943,1.421,15.484C7.588-17.076,6.69-19.023,6.364-22.29c-.228-2.278-.25-6.473-1.062-9.982a10.657,10.657,0,0,0-2.565-5.07c-.273.659-1.49,4.707-1.49,4.707A28.522,28.522,0,0,1,2.836-24.17c-.041,3.391-.308,6.705-4.108,8.989s-9.492,1.376-10.9-2.188,1.72-12.509,1.679-14.621-.419-2.4-1.3-2.054-2.684,2.384-4.238,5.7-2.244,7.417-3.126,10.207-2.289,5.617-4.469,5.46-3.354-2.149-4.025-5.035a22.8,22.8,0,0,1-.078-7.666c.455-2.441-.6-1.941-1.245,1.892a19.98,19.98,0,0,0,.61,10.092c1.4,3.952,3.8,5.426,5.894,4.921s3.943-5.424,4.593-7.634,3.556-12.008,5.2-12.49c.23,1.1-1.279,4.665-1.762,8.83s.642,9.76,5.928,10.727a9.67,9.67,0,0,0,10.174-4.84,18.569,18.569,0,0,0,2.056-6.142c.169,3.195,2.35,8.184,6.585,9.607l.437.126c.261,2.615.685,6.029,1.076,9.614-.824.254-1.656.484-2.485.683a8.178,8.178,0,0,0-.364-.99c-1.293-2.78-3.432-5.343-6.4-5.165-3.028.18-6.331,4.221-6.186,7.173.1,1.985,1.188,3.614,5.162,4.032a18.149,18.149,0,0,0,5.734-.444,8.206,8.206,0,0,1,.478,2.38C6.5,8.465-3.921,16.325-11.724,17.081s-10.183-3.336-10.261-7.442c-.058-3.124,1.82-6.242,3.141-8.4A21.4,21.4,0,0,0-14.425-3.2q.4.246.759.456a3.382,3.382,0,0,1,1.3,1.352c.172-.264.974-1.708.66-2.413a12.25,12.25,0,0,0-1.7-1.123c.89-2.219.878-4.434-.275-4.927-1.29-.549-2.974.977-3.7,1.908A2.473,2.473,0,0,0-17.9-6.457a1.889,1.889,0,0,0,.964,1.606c.688.47,1.327.9,1.928,1.279-1.705,1.791-5.735,4.414-8.2,5.956-.091-.226-.452.012-.938.585l-.668.412c-1.967,1.2-6.685,3.847-7.612,4.494s-.347.531,0,.387c.655-.353,1.515-.782,2.481-1.254,1.368-.669,2.96-1.426,4.515-2.186a23.01,23.01,0,0,0-1.359,2.689c-1.856,4.383-4.857,13.466,1.634,18.931,6.21,5.232,16.884,3.241,25.736-2.2S11.346,16.9,12.73,14.919M-16.132-6.687c-.307-.226-.349-.528-.1-.739a2.637,2.637,0,0,1,1.189-.615c.982-.182,1.373.946.979,2.7-.746-.456-1.514-.936-2.069-1.348M4.173.722C-.334.743-.542-.076-.457-.6A2.312,2.312,0,0,1,2.811-1.607,8.124,8.124,0,0,1,5.2.68q-.52.039-1.023.042m-13.805,23.7c-8.516,2.324-16.823-1.277-17.326-8.407A20.959,20.959,0,0,1-24.077,4.16c1.221-.6,2.375-1.191,3.329-1.717-2.229,3.59-3.534,8.4-2.662,12.471.987,4.614,5,7.411,11.8,6.508,6.729-.892,15.827-7.291,18.407-9.7A10.782,10.782,0,0,0,8.8,8.462a9.89,9.89,0,0,0,.852-2.5,14.9,14.9,0,0,0,.164-2.016c.79-.236,1.584-.5,2.383-.784.271,2.921.471,5.8.483,8.291C8.494,16.366-1.116,22.1-9.632,24.426" transform="translate(32.927 38.589)" fill="#fff"/></g><g transform="translate(165.266 1.102)"><path d="M1.948,12.211C1.66,7.441.964-1.193.575-5.574.231-9.472-.445-14.815-.94-19.518a25.176,25.176,0,0,1-.124-2.977c.015-.521.536-.32,1.057.215s1.336,1.208,1.49,1.127c.509-.264-.1-1.571-.816-2.976s-3.554-7.231-4.047-7.453c-.251-.113-1.581,3.376-1.658,4.06a4.748,4.748,0,0,1,.974,2.976c.071,1.9,1.033,10.66,1.728,17.741C-1.856-1.883-1.234,6.148-.781,12.2c-.022.01.427,5.757.476,6.4.278,3.718.134,8.4.106,9.209s.566.674,1.207-1.136c.652-1.848,1.024-5.975,1.074-9.7Z" transform="translate(5.039 31.585)" fill="#fff"/></g><g transform="translate(144.608 18.937)"><path d="M.966,2.582c-.873.267-2.244-.657-2.139-2.593A18.889,18.889,0,0,1-.041-4.431c.4-1.426.4-2.8.064-2.022A33.075,33.075,0,0,0-2.434.941C-2.726,3.226-1.986,4.7-.979,5.2c1.254.63,2.158-.369,2.769-1.842C2.378,1.949,2.266.3,1.859.69c-.341.4-.468,1.761-.893,1.892" transform="translate(2.499 6.679)" fill="#fff"/></g><g transform="translate(132.83 33.274)"><path d="M.75.547c.463-1.231.572-2.437.216-1.775A29.818,29.818,0,0,0-1.782,5.11c-.439,1.99.094,3.337.941,3.847,1.056.638,1.925-.18,2.582-1.434.628-1.2.66-2.657.274-2.341-.333.333-.554,1.516-.935,1.6C.287,6.959-.843,6.054-.6,4.356A16.843,16.843,0,0,1,.75.547" transform="translate(1.94 1.415)" fill="#fff"/></g><g transform="translate(94.643 59.119)"><path d="M1.206.579c.774-1.256,1.159-2.559.622-1.9A34.48,34.48,0,0,0-2.555,5.1c-.913,2.093-.622,3.665.192,4.38,1.015.893,2.146.159,3.134-1.087.949-1.2,1.3-2.78.807-2.51-.435.3-.933,1.556-1.371,1.579C-.694,7.5-1.734,6.3-1.1,4.493A19.435,19.435,0,0,1,1.206.579" transform="translate(3.119 1.498)" fill="#fff"/></g><g transform="translate(159.621 15.249)"><path d="M.957,2.59c-.888.223-2.2-.772-1.981-2.7a19.056,19.056,0,0,1,1.4-4.352C.856-5.869.939-7.24.557-6.482A33.646,33.646,0,0,0-2.339.777c-.43,2.267.22,3.775,1.2,4.329,1.217.69,2.175-.259,2.876-1.7C2.4,2.028,2.393.379,1.961.746c-.364.389-.572,1.736-1,1.843" transform="translate(2.474 6.698)" fill="#fff"/></g><g transform="translate(161.449 36.396)"><path d="M.371,3.291c1.215.69,2.178-.259,2.876-1.7.669-1.377.66-3.026.23-2.659C3.111-.682,2.9.668,2.471.775,1.583,1,.268,0,.49-1.926a18.971,18.971,0,0,1,1.4-4.352c.483-1.405.566-2.779.185-2.018A33.54,33.54,0,0,0-.825-1.04c-.43,2.269.22,3.777,1.2,4.331" transform="translate(0.96 8.513)" fill="#fff"/></g><g transform="translate(174.856 15.268)"><path d="M.961.754c.585-1.7.685-3.36.222-2.441C.143.372-1.8,4.35-2.323,7.1s.269,4.567,1.45,5.239c1.47.834,2.633-.314,3.481-2.056.808-1.667.8-3.665.275-3.218-.441.468-.693,2.1-1.217,2.229C.594,9.558-1,8.356-.729,6.022A23.078,23.078,0,0,1,.961.754" transform="translate(2.485 1.95)" fill="#fff"/></g><g transform="translate(48.826 44.03)"><path d="M1.513.934c.957-2.072,1.3-4.147.6-3.042C.536.364-2.431,5.15-3.444,8.541s-.263,5.775,1.132,6.752c1.741,1.213,3.354-.1,4.646-2.2,1.237-2.007,1.483-4.521.77-4.018-.615.538-1.147,2.561-1.822,2.668C-.1,11.964-1.946,10.274-1.3,7.369-.72,4.748.822,2.433,1.513.934" transform="translate(3.913 2.415)" fill="#fff"/></g><g transform="translate(188.07 57.283)"><path d="M.034,2.967c.733-.6,7.107-4.034,8.281-4.731,0,0,1.2-1.957.84-2.165S6.466-2.021,5.019-1.963,1.587-2.968,1.524-3.84c.188-.658,1.93-1.646,2.56-1.687s.528,1.4.738,1.572,1.048-.99,1.154-1.474S5.993-7.935,4.84-7.645C3.016-7.184.264-3.8-.049-2.737S1.334-.742,2.575-.237A6.21,6.21,0,0,0,.957.827,4.86,4.86,0,0,0,.034,2.967" transform="translate(0.088 7.674)" fill="#fff"/></g><g transform="translate(166.335 61.535)"><path d="M.034,2.967c.733-.6,7.107-4.032,8.281-4.731,0,0,1.2-1.957.84-2.165S6.466-2.021,5.019-1.963,1.587-2.968,1.524-3.84c.188-.658,1.93-1.646,2.56-1.684s.528,1.393.738,1.567S5.87-4.945,5.976-5.429,5.99-7.935,4.84-7.645C3.016-7.182.264-3.8-.049-2.734S1.334-.742,2.573-.237A6.222,6.222,0,0,0,.957.827,4.86,4.86,0,0,0,.034,2.967" transform="translate(0.088 7.674)" fill="#fff"/></g><g transform="translate(115.547 1.104)"><path d="M.544,2.658c.572.664,4.316,5.421,7.249,8.412s7.958,7.837,11.65,11.157c.714.643,1.472,1.341,2.244,2.066.931,7.151,2.008,16.25,2.461,20.012.446,3.7.512,8.384.521,9.2s.6.65,1.154-1.182c.749-2.457.835-8.82.438-13.023-.246-2.6-.827-7.458-1.389-11.941,2.18,2.154,4.24,4.291,5.628,5.891,2.552,2.937,4.7,5.152,6.008,8.309.926,2.234.832,4.011,1.212,4.362.328.3.691-2.369.286-4.961-.656-4.209-1.556-5.994-6.959-12-2.061-2.3-4.488-4.7-6.86-6.943-.091-.692-.175-1.333-.25-1.9C23.748,18.7,21.917,6.554,21.773,5.192c-.123-1.185-.339-2.581-.321-3.24.013-.525.347-.32.871.215s1.434,1.47,1.589,1.388c.511-.264-.058-1.834-.774-3.241s-3.17-6.966-3.663-7.186c-.25-.113-1.723,3.375-1.8,4.057A4.751,4.751,0,0,1,18.649.163c.02.531.491,5.529,1.082,10.248.524,4.17,1.172,8.124,1.24,8.582l0,.035c-2.446-2.231-4.6-4.126-5.908-5.316C12.009,10.934,5.259,4.342,4.988,3.355c-.061-.312.463-.12,1.426.034s1.827.484,1.672.01A3.168,3.168,0,0,0,6.724,2.052C5.8,1.481,3.435,0,1.675-1.046s-2.637-1.923-3-1.672A20.59,20.59,0,0,0-1.24,1.435,3.494,3.494,0,0,1,.544,2.658" transform="translate(1.407 6.875)" fill="#fff"/></g><g transform="translate(121.475 0.656)"><path d="M.234.986a24.119,24.119,0,0,1,5.4.19C5.111,1.538,1.6,3.31.909,3.732S.045,4.4.392,4.359A26.617,26.617,0,0,0,4.75,3.166C5.774,2.686,7.519.348,8.2-.524s.675-1.308.5-1.541a18.493,18.493,0,0,0-7.317-.22A11.258,11.258,0,0,0-.553.724c-.172.451.064.421.787.262" transform="translate(0.606 2.551)" fill="#fff"/></g><g transform="translate(140.712 1.062)"><path d="M.189.795a19.441,19.441,0,0,1,4.35.152c-.419.292-3.245,1.721-3.8,2.063s-.7.537-.419.5a20.984,20.984,0,0,0,3.513-.961C4.653,2.165,6.059.28,6.605-.421s.544-1.054.4-1.242a14.8,14.8,0,0,0-5.9-.179A9.036,9.036,0,0,0-.444.584c-.142.362.05.339.632.21" transform="translate(0.488 2.056)" fill="#fff"/></g><g transform="translate(156.215 0.862)"><path d="M.189.795A19.422,19.422,0,0,1,4.537.947c-.417.292-3.244,1.721-3.8,2.061s-.7.539-.417.505A22.712,22.712,0,0,0,3.97,2.551C4.8,2.165,5.774.28,6.32-.423s.546-1.054.4-1.239a13.4,13.4,0,0,0-5.609-.181A9.1,9.1,0,0,0-.446.585c-.139.362.05.339.635.21" transform="translate(0.489 2.056)" fill="#fff"/></g><g transform="translate(142.155 11.192)"><path d="M1.412.02c-.918,1.446.233,2.613.652,3.781C1.5,4.318.628,3.846.337,3.392-.282,2.462-.075.564-.8.272a9.42,9.42,0,0,0-.308,1.081A5.026,5.026,0,0,1-.7,3.51,1.342,1.342,0,0,1-1.847,4.646c-1.611.039-.818-2.346-1.439-3.7-.127.33-.218.685-.366.994a5.326,5.326,0,0,1,.194,1.131,14.409,14.409,0,0,0,.089,1.66c.134.684.513,1.138,1.093,1.182A1.873,1.873,0,0,0-.343,4.236c.208.816,1.8,1.715,2.582.713,1.037-1.321.208-2.452-.324-3.7C1.532.336,1.643-.267,1.412.02" transform="translate(3.653 0.052)" fill="#fff"/></g><g transform="translate(101.88 3.501)"><path d="M.032,1.1A1.086,1.086,0,0,0,.919,2.157,1.634,1.634,0,0,0,2.664.79c.136.711,1.467,1.547,2.191.718C5.812.41,5.149-.6,4.75-1.69c-.286-.81-.163-1.323-.374-1.085-.86,1.206.078,2.262.384,3.285C4.245.932,3.519.49,3.289.09c-.49-.828-.222-2.454-.833-2.736a8.175,8.175,0,0,0-.316.919A4.317,4.317,0,0,1,2.392.146a1.166,1.166,0,0,1-1.045.933C-.041,1.049.755-.974.282-2.162c-.123.278-.22.582-.364.839a4.331,4.331,0,0,1,.114.985C.042.151-.026.672.032,1.1" transform="translate(0.082 2.833)" fill="#fff"/></g><g transform="translate(115.975 59.078)"><path d="M5.258,1.219a2.415,2.415,0,0,0,.41-1.382C5.582-.625,5.017-2.549,3.92-3.031S2-2.5,1.482-1.1l-.362-.009a4.443,4.443,0,0,0-.28,1.08C.717.786.487,1.308-.9,2.57A44.177,44.177,0,0,1-8.317,7.358c-2.458,1.2-4.227,2.226-4.879,2.539s-.46.423.189.229S-9.1,8.882-7.8,8.346A31.526,31.526,0,0,0-3,5.678C-.87,4.3.4,2.919.828,1.7c.3-.872.382-1.221.382-1.221a8.184,8.184,0,0,0,2.155.782c1.351.311,1.734.21,1.892-.038M3.424-1.515A2,2,0,0,1,4.5-.233,7.7,7.7,0,0,1,2-.813a1.158,1.158,0,0,1,1.426-.7" transform="translate(13.599 3.152)" fill="#fff"/></g><g transform="translate(37.832 28.34)"><path d="M23.031,10.167c-1.887-.262-6.64-.985-7.8-3.744C16.2,5,20.7,3.2,26.334,1.509s11.519-3.868,13.1-4.922a3.647,3.647,0,0,1,1.017-.082c.283-.816,1.7-3.681,1.786-4.28-1.574.089-11.278.8-15.589,1.034s-12.619.176-15.386.146a48.852,48.852,0,0,1,11.484-5.636c.746-.264,1.437-.5,2.081-.718a6.686,6.686,0,0,1,.909,2.433,4.644,4.644,0,0,0,.549-2.907c3.356-1.071,5.086-1.426,5.832-1.628a12.736,12.736,0,0,0,1.43-4.873,12.988,12.988,0,0,0-3.469-3.029c-1.925-1.344-4-2.516-6.073-2-2.833.695-3.4,5.9-2.74,7,.21.349.709.966,1.3,1.728a62.74,62.74,0,0,0-6.141,2.775C12.174-11.214,7.43-8.766,6.046-6.411l-.4.193C5.538-6,4.662-2.351,4.535-1.959c.884-.031,7.483-.018,12.079-.161s8.61-.292,10.183-.292c-2.33.552-8.435,2.821-10.191,4.155S13.747,5.115,13.718,8.6a16.334,16.334,0,0,1-7.27-5.611C3.559-.915,4.157-4.933,3-10.207,1.32-17.859-2.267-24.319-4.5-26.3a23.752,23.752,0,0,0-.849,4.736s2.8,6.189,4.216,10.14S1.492-3.574,1.433-2.7C.266-.143-6.641,5.216-12.4,8.354c-5.459,2.975-10.268,3.3-11.972,1.177a3.557,3.557,0,0,1-.691-1.457c.741-.346,1.484-.695,2.246-1.043C-17.905,4.794-9.188.088-7.145-2.382A9.674,9.674,0,0,0-6.264-12c-1.287-2.411-3.306-5.2-3.464-6.189-.123-.466,1.311.19,2.158.234.41-.031.205-.582-.675-1.454-.7-.695-3.425-2.949-4.465-3.829-.261-.224-.455-.133-.508.1-.2.9-.617,2.828-.777,3.78l.111.479a1.551,1.551,0,0,1,.81.875,38.92,38.92,0,0,0,2.41,5.161c1.353,2.484,3.309,5.227,3.5,6.611C-8.753-4.2-16.771.116-24.582,3.675a31.3,31.3,0,0,1,2.256-5.07,6.132,6.132,0,0,0,.792-1.153c.779-1.424.855-3.164.382-2.8-.4.39-.7,1.8-1.159,1.9-.949.194-2.28-.912-1.945-2.937a20.264,20.264,0,0,1,1.7-4.531c.585-1.46.745-2.9.3-2.119a35.65,35.65,0,0,0-3.44,7.526c-.572,2.371.036,3.991,1.037,4.619a1.564,1.564,0,0,0,1.074.267,29.944,29.944,0,0,0-2.15,4.812c-3.141,1.405-6.2,2.662-8.726,3.567-9.093,3.255-15.573,5.173-20.105,6.6l-.177.08c.333-1.078.288-2-.069-1.721-.4.393-.695,1.805-1.158,1.9-.949.194-2.28-.911-1.946-2.937a20.335,20.335,0,0,1,1.7-4.529c.582-1.459.744-2.905.3-2.119a35.6,35.6,0,0,0-3.44,7.525c-.573,2.372.034,3.992,1.035,4.621,1.246.783,2.309-.177,3.124-1.662l.286-.61a7.638,7.638,0,0,0,1.474-.225c2.077-.467,7.27-1.221,14.41-2.152A40.462,40.462,0,0,0-26.555,8.769c-.016.39-.02.788,0,1.2.192,4.845,3.367,6.212,7.709,5.306,4.189-.879,10.03-4.72,13.53-7.311A28.91,28.91,0,0,0,.975,2.006,15.652,15.652,0,0,0,2.282-3.413C2.6-.45,2.859,3.65,5.661,7.166c2.58,3.237,7.867,7.752,17.81,7.876.033-1.183-.441-4.876-.441-4.876m-.658-30.022c1.424-1.6,4.461-.553,6.741,1.473A44.635,44.635,0,0,0,24.609-17c-1.04-1.254-2.2-2.462-2.236-2.86" transform="translate(59.569 26.296)" fill="#fff"/></g><g transform="translate(63.663 0.536)"><path d="M.058,3.441a52.943,52.943,0,0,0,4.75-2.423A27.127,27.127,0,0,0,9.905-2.7a6.207,6.207,0,0,0,.921-1.031c.638.264,1.077.538,1.351.646.411.159.96.388,1.318-.784A2.865,2.865,0,0,0,12.682-6.7,7.271,7.271,0,0,0,10.4-8.874c-.643-.241-.949,1.2-.851,1.16h.43l.083.04A3.983,3.983,0,0,0,8.425-5.35c-.07.531.03.922,1.3,1.249l.511.15A23.746,23.746,0,0,1,5.855-.478C3.946.831,1.237,2.466.466,2.939s-.706.618-.407.5m11.473-9.22.069-.627a6.538,6.538,0,0,1,1.49,2.4c-.41.033-.921-.346-1.814-.728a7.671,7.671,0,0,0,.255-1.045m-2.564,0a1.606,1.606,0,0,1,1.066-1.012c.726-.292,1.048.524,1.111,1.517l-.216.4L10.274-5.1c-.693-.2-1.162-.318-1.307-.676" transform="translate(0.15 8.901)" fill="#fff"/></g><g transform="translate(101.767 18.032)"><path d="M2.709,3.9C3.757,3.212,6.637,1.133,8.271-.23a24.322,24.322,0,0,0,3.378-3.52c.569.368,1.1.695,1.582.979A3.42,3.42,0,0,1,14.537-1.42c.172-.264.974-1.71.66-2.413a22.138,22.138,0,0,0-2.5-1.616c.594-1.333,1.412-3.639.241-4.446-1-.685-2.691.449-3.473,1.92-.646,1.218-.729,2.252.5,3.1.347.239.679.464,1,.678A64.364,64.364,0,0,1,5.808.54C3.785,2.233,1.872,3.893,1.539,4.289l-.1.154C1,3.212,1.121,2.453.792,2.861c-1.417,2.223.359,4.023,1,5.821-.873.793-2.211.065-2.659-.629C-1.818,6.618-1.5,3.7-2.617,3.25a14.337,14.337,0,0,0-.476,1.665,7.723,7.723,0,0,1,.635,3.316A2.057,2.057,0,0,1-4.226,9.978c-2.482.064-1.258-3.608-2.216-5.688-.194.51-.333,1.056-.566,1.528a7.993,7.993,0,0,1,.3,1.744,24.283,24.283,0,0,0,.139,2.556c.205,1.052.79,1.752,1.683,1.816,1.851.15,2.7-1.354,2.977-2.581.319,1.255,2.77,2.635,3.976,1.1,1.6-2.034.319-3.776-.5-5.689l-.1-.248c.114.04.541-.147,1.24-.608M9.949-7.549c.614-1.139,1.906-1.235,2.294-.638a2.617,2.617,0,0,1-.13,2.378c-1.14-.716-2.158-1.416-2.164-1.739" transform="translate(7.008 10.1)" fill="#fff"/></g><g transform="translate(65.359)"><path d="M1.6,6.913c-2.18-.154-3.354-2.152-4.025-5.037a22.8,22.8,0,0,1-.078-7.666c.183-.974-.845-.471-1.245,1.893A20.016,20.016,0,0,0-3.142,6.2c1.4,3.95,3.8,5.424,5.894,4.918S6.694,5.693,7.345,3.485s3.556-11.218,5.2-11.7c.23,1.1-1.279,3.875-1.762,8.04s.356,9.628,5.643,10.6A9.664,9.664,0,0,0,26.6,5.575a18.547,18.547,0,0,0,2.056-6.14c.169,3.2,2.35,8.187,6.585,9.609,4.092,1.375,7.218.116,8.6-1.666A14.707,14.707,0,0,0,46.152.035c.083-2.5-2.076-7.069-2.559-8.524a15.715,15.715,0,0,1-.777-2.963c-.041-.5,1.093.582,1.806.8.483.1.314-.949-.274-1.667s-3.759-5.526-3.981-5.191a42.167,42.167,0,0,0-1.49,4.281,3,3,0,0,1,1.129,2.112,38.507,38.507,0,0,0,1.656,6.838,60.267,60.267,0,0,1,2.392,7.343A8.887,8.887,0,0,1,35.916,4.1C32.687,2.728,31.656.733,31.3-2.832c-.228-2.278-.25-6.473-1.062-9.981a10.637,10.637,0,0,0-2.568-5.069c-.27.657-1.487,4.707-1.487,4.707a28.591,28.591,0,0,1,1.592,8.466c-.044,3.388-.311,6.7-4.111,8.989S14.457,5.655,13.051,2.089s1.72-11.583,1.679-13.695-.422-2.4-1.3-2.054-2.687,2.384-4.238,5.7A69.633,69.633,0,0,0,6.064,1.451C5.184,4.241,3.775,7.067,1.6,6.913" transform="translate(4.126 17.882)" fill="#fff"/></g><g transform="translate(5.166 1.224)"><path d="M.727,3.126A10.049,10.049,0,0,0,6.264.357c.587-.544.9-1.355.483-1.047C3.643,2.08-.51,2.159-.743,1.693-.637,1.228.456.472,2.05-.592A9.577,9.577,0,0,0,4.527-2.706l.176.031c1.181.259,2.545.775,2.962.362A2.28,2.28,0,0,0,7.7-5.26,9.25,9.25,0,0,0,4.367-7.87c-1.257-.67-1.5.4-1.662.782-.155.356-.091.659.175.667a4.738,4.738,0,0,0-.8,1.849,1.312,1.312,0,0,0,.142.946,1.562,1.562,0,0,0,.718.526l.546.17A16.476,16.476,0,0,1,.894-1.039,6.212,6.212,0,0,0-1.727,1.788C-2.105,2.913-1.958,3.321.727,3.126M5.47-4.788l.1-.572v-.367c.851.619,2.211,1.791,2.127,2.493-.538-.122-1.565-.339-2.54-.59a6,6,0,0,0,.31-.964m-2.522.179c-.626-.5-.016-1,.538-1.317C4.2-6.34,4.622-6,4.989-4.914a4.393,4.393,0,0,1-.52.9,7.423,7.423,0,0,1-1.52-.6" transform="translate(1.881 8.086)" fill="#fff"/></g><g transform="translate(14.87 40.935)"><path d="M.266.5A4.415,4.415,0,0,0-.647,3.48c.156.131,2.567.944,2.944,1.12l.172-.656c1.148,1.031,2.421,6.176,2.7,6.19s.693-.582.962-1.949c.247-1.267.495-3.163.753-4.707C7.128,2.067,7.5,1.258,8.352,1.1s1.48.931,1.7,1.672A12.631,12.631,0,0,0,10.776.458c-.142-.466-1.465-2.223-2.549-1.641S6.46,1.864,6.24,3.405a17.722,17.722,0,0,1-.658,3.753A13.809,13.809,0,0,0,3.319,2.172C2.1.692.673.149.266.5" transform="translate(0.688 1.3)" fill="#fff"/></g><g transform="translate(4.543 33.2)"><path d="M.278,1.926A26.288,26.288,0,0,0,4.636.736C5.659.256,7.4-2.082,8.081-2.954s.677-1.31.505-1.541a18.451,18.451,0,0,0-7.319-.22A11.2,11.2,0,0,0-.665-1.706c-.175.449.064.421.786.262a23.93,23.93,0,0,1,5.4.187C5-.892,1.49.88.8,1.3s-.865.668-.519.624" transform="translate(0.72 4.982)" fill="#fff"/></g><g transform="translate(131.353 0.865)"><path d="M22.873,14.423c-.1-2.614-1.384-6.627-6.252-12.785-1.68-2.126-4.044-4.893-6.538-7.727-.069-.966-.138-1.849-.2-2.608-.327-3.9-1.434-11.859-1.91-16.563a27.56,27.56,0,0,1-.108-3.108c.017-.524.394-.454.913.084s1.318,1.321,1.484,1.267c.355-.122.046-1.31-.661-2.718s-3.378-7.114-3.868-7.335c-.253-.113-1.512,3.237-1.59,3.921a4.761,4.761,0,0,1,.958,2.98c.066,1.9,1.215,13.144,1.875,20.228l.036.4C3.281-13.708-.23-17.5-1.675-19.042c-.25-.267-.525-.57-.822-.9-.235-1.895-.452-3.7-.6-5.191a25.5,25.5,0,0,1-.108-3.108c.012-.522.392-.451.91.087s1.318,1.321,1.484,1.265c.355-.12.046-1.308-.663-2.718s-3.49-7.245-3.984-7.466c-.25-.113-1.568,3.5-1.646,4.183a4.765,4.765,0,0,1,.96,2.982c.025.809.235,3.26.516,6.353-2.471-2.937-4.891-6.012-5.063-6.637-.061-.308.462-.119,1.429.038s1.867.444,1.712-.033a3.213,3.213,0,0,0-1.363-1.347c-.923-.571-3.289-2.051-5.049-3.1s-2.637-1.925-3-1.675a20.769,20.769,0,0,0,.083,4.153A2.793,2.793,0,0,1-15.1-31.08c.527.7,3.9,5.424,6.563,8.62.767.92,1.969,2.346,3.375,3.992.275,2.944.564,5.986.8,8.528.541,5.8,2.486,21.089,2.5,26.058a12.114,12.114,0,0,1-7.392,3.265c-3.02.038-4.677-.757-5.894-3-.376-.7-.725-1.4-1.072-2.029a4.042,4.042,0,0,0-4.429-1.936l-.27.072-.482.231a11.037,11.037,0,0,0-3.65,3.311c-2.1,2.83-3.434,5.9-4.985,8.56-1.615,2.769-2.855,4.627-5.689,4.183-2-.313-3.51-2.024-4.444-4.129a16.475,16.475,0,0,0,5.922-7.465,33.985,33.985,0,0,0,2.3-14.48c-.155-5.088-2.474-17.06-3.087-21.648s-1.49-8.358-1.388-9.338c.1-.946,1.6,1.281,2.372,1.447.394-.088.183-1.508-.566-2.708-.508-.816-2.117-4.527-3.17-6.316-.495-.846-.614-1.337-.844-1.437s-1.981,3.64-1.769,4.047a3.861,3.861,0,0,1,.982,2.423c.111,1.328,1.312,11.079,2.363,18.261C-36.252-7.153-34.5,2.69-34.279,9.966A15.768,15.768,0,0,1-34.837,15c-.754,1.458-1.983,3.077-6.3,6.151-.667-4.343.058-7.872-.574-8.2-.713.077-.827,2.1-.908,4.6a29.06,29.06,0,0,0,.228,4.467c-5.3,3.545-12.31,6.773-15.6,8.5-1.93,1.013-1.234,1.249.4.744s10.613-2.862,15.406-5.383l.516-.286a15.528,15.528,0,0,0,.9,2.418c1.613,3.351,3.917,5.342,6.414,5.147,2.1-.161,3.622-2.408,4.951-5.088,1.343-2.713,3.612-7.865,5.837-9.782a9.725,9.725,0,0,1,2.6-1.675,3.64,3.64,0,0,1,2.919.406,3.1,3.1,0,0,1,1.113,1.326,12.255,12.255,0,0,0,2.537,4.03c2.35,2.263,6.128,1.8,8.962.479a8.443,8.443,0,0,0,4.9-5.814c1.074-4.177.9-8.457.7-12.259C-.076.436-.769-4-1.163-8.7c-.127-1.511-.374-3.612-.659-5.891C.938-11.4,3.8-8.169,5.542-6.4c.6.61,1.232,1.288,1.881,2C7.942,2.713,8.44,11.612,8.7,15.346s.093,8.4.062,9.212.421.674,1.07-1.131c.871-2.423,1.417-8.777,1.226-12.991-.114-2.5-.364-7.069-.634-11.386,2.142,2.545,4.175,5.115,5.5,6.85A36.978,36.978,0,0,1,21.2,14.926c.754,2.287.837,2.965.984,3.372s.8-1.261.693-3.875" transform="translate(59.161 37.305)" fill="#fff"/></g></g><path d="M244.466,156.492a1.8,1.8,0,0,0-3.282,0h-7.368a6.59,6.59,0,0,1,.23-2.439l15.211-.009.424.714a7.6,7.6,0,0,0,1.426,1.734Zm10.07-7.069H236.257a4.277,4.277,0,0,0,1.944-3.99,2.265,2.265,0,0,0-2.2-1.744h-.572c-1.386.135-2.391,1.135-2.245,2.232l.056.422.068.649a6.583,6.583,0,0,1-.227,2.431H97.964a11.622,11.622,0,0,0,9.615,4.707l123.3-.076a4.279,4.279,0,0,0-1.951,4,2.406,2.406,0,0,0,2.773,1.744c1.385-.135,2.39-1.135,2.245-2.233l-.056-.421h7.246a1.774,1.774,0,0,0,3.39,0h7.371v-.017a9.64,9.64,0,0,0,5.564,1.72,3.3,3.3,0,0,0,3.524-3.021v-.873c0-3.051-2.884-5.525-6.443-5.525" transform="translate(690.193 409.38)" fill="#fff"/></g></g></svg>