<svg xmlns="http://www.w3.org/2000/svg" width="320.55" height="208.004" viewBox="0 0 320.55 208.004"><g transform="translate(-539.225 -447.496)"><path d="M320.55,197H0V175H320.55Zm0-46.5H0v-22H320.55Zm0-46.5H0V82H320.55Zm0-46.5H0v-22H320.55Zm0-46.5H0V-11H320.55Z" transform="translate(539.225 458.496)" fill="#c15247"/><path d="M0,0H177V115H0Z" transform="translate(539.225 447.496)" fill="#4f71b9"/><path d="M16.1,0l4.83,10.329L32.2,11.752l-8.284,7.807,2.135,11.208-9.95-5.5-9.95,5.5L8.284,19.559,0,11.752l11.269-1.423Z" transform="translate(553.67 458.493)" fill="#fff"/><path d="M16.1,0l4.83,10.329L32.2,11.752l-8.284,7.807,2.135,11.208-9.95-5.5-9.95,5.5L8.284,19.559,0,11.752l11.269-1.423Z" transform="translate(553.67 520.728)" fill="#fff"/><path d="M16.1,0l4.83,10.329L32.2,11.752l-8.284,7.807,2.135,11.208-9.95-5.5-9.95,5.5L8.284,19.559,0,11.752l11.269-1.423Z" transform="translate(582.981 491.115)" fill="#fff"/><path d="M16.1,0l4.83,10.329L32.2,11.752l-8.284,7.807,2.135,11.208-9.95-5.5-9.95,5.5L8.284,19.559,0,11.752l11.269-1.423Z" transform="translate(611.626 458.493)" fill="#fff"/><path d="M16.1,0l4.83,10.329L32.2,11.752l-8.284,7.807,2.135,11.208-9.95-5.5-9.95,5.5L8.284,19.559,0,11.752l11.269-1.423Z" transform="translate(611.626 520.728)" fill="#fff"/><path d="M16.1,0l4.83,10.329L32.2,11.752l-8.284,7.807,2.135,11.208-9.95-5.5-9.95,5.5L8.284,19.559,0,11.752l11.269-1.423Z" transform="translate(640.937 491.115)" fill="#fff"/><path d="M16.1,0l4.83,10.329L32.2,11.752l-8.284,7.807,2.135,11.208-9.95-5.5-9.95,5.5L8.284,19.559,0,11.752l11.269-1.423Z" transform="translate(669.582 458.493)" fill="#fff"/><path d="M16.1,0l4.83,10.329L32.2,11.752l-8.284,7.807,2.135,11.208-9.95-5.5-9.95,5.5L8.284,19.559,0,11.752l11.269-1.423Z" transform="translate(669.582 520.728)" fill="#fff"/></g></svg>