<svg width="40" height="41" viewBox="0 0 40 41" fill="none" xmlns="http://www.w3.org/2000/svg">
<path d="M21.9835 10.5981H11.3168C10.8835 10.5981 10.4668 10.6148 10.0668 10.6648C5.5835 11.0481 3.3335 13.6981 3.3335 18.5815V25.2481C3.3335 31.9148 6.00016 33.2315 11.3168 33.2315H11.9835C12.3502 33.2315 12.8335 33.4815 13.0502 33.7648L15.0502 36.4315C15.9335 37.6148 17.3668 37.6148 18.2502 36.4315L20.2502 33.7648C20.5002 33.4315 20.9002 33.2315 21.3168 33.2315H21.9835C26.8668 33.2315 29.5168 30.9981 29.9002 26.4981C29.9502 26.0981 29.9668 25.6815 29.9668 25.2481V18.5815C29.9668 13.2648 27.3002 10.5981 21.9835 10.5981ZM10.8335 23.9315C9.90016 23.9315 9.16683 23.1815 9.16683 22.2648C9.16683 21.3481 9.91683 20.5981 10.8335 20.5981C11.7502 20.5981 12.5002 21.3481 12.5002 22.2648C12.5002 23.1815 11.7502 23.9315 10.8335 23.9315ZM16.6502 23.9315C15.7168 23.9315 14.9835 23.1815 14.9835 22.2648C14.9835 21.3481 15.7335 20.5981 16.6502 20.5981C17.5668 20.5981 18.3168 21.3481 18.3168 22.2648C18.3168 23.1815 17.5835 23.9315 16.6502 23.9315ZM22.4835 23.9315C21.5502 23.9315 20.8168 23.1815 20.8168 22.2648C20.8168 21.3481 21.5668 20.5981 22.4835 20.5981C23.4002 20.5981 24.1502 21.3481 24.1502 22.2648C24.1502 23.1815 23.4002 23.9315 22.4835 23.9315Z" fill="#6FDA44"/>
<path d="M36.6338 11.9147V18.5814C36.6338 21.9147 35.6005 24.1814 33.5338 25.4314C33.0338 25.7314 32.4505 25.3314 32.4505 24.7481L32.4672 18.5814C32.4672 11.9147 28.6505 8.09806 21.9838 8.09806L11.8339 8.11473C11.2506 8.11473 10.8506 7.5314 11.1506 7.0314C12.4006 4.96473 14.6672 3.9314 17.9838 3.9314H28.6505C33.9672 3.9314 36.6338 6.59806 36.6338 11.9147Z" fill="#6FDA44"/>
</svg>
